<svg height='300px' width='300px'  fill="#000000" xmlns="http://www.w3.org/2000/svg" xmlns:xlink="http://www.w3.org/1999/xlink" viewBox="0 0 68 68" version="1.1" x="0px" y="0px"><title>growth, increase, acceleration, graph, exponential, expansion</title><desc>Created with Sketch.</desc><g stroke="none" stroke-width="1" fill="none" fill-rule="evenodd"><g transform="translate(-655.000000, -56.000000)" fill="#000000" fill-rule="nonzero"><path d="M661,62.8284271 L658.414214,65.4142136 C657.633165,66.1952621 656.366835,66.1952621 655.585786,65.4142136 C654.804738,64.633165 654.804738,63.366835 655.585786,62.5857864 L661.585786,56.5857864 C662.366835,55.8047379 663.633165,55.8047379 664.414214,56.5857864 L670.414214,62.5857864 C671.195262,63.366835 671.195262,64.633165 670.414214,65.4142136 C669.633165,66.1952621 668.366835,66.1952621 667.585786,65.4142136 L665,62.8284271 L665,114 L716.171573,114 L713.585786,111.414214 C712.804738,110.633165 712.804738,109.366835 713.585786,108.585786 C714.366835,107.804738 715.633165,107.804738 716.414214,108.585786 L722.414214,114.585786 C723.195262,115.366835 723.195262,116.633165 722.414214,117.414214 L716.414214,123.414214 C715.633165,124.195262 714.366835,124.195262 713.585786,123.414214 C712.804738,122.633165 712.804738,121.366835 713.585786,120.585786 L716.171573,118 L663,118 C661.895431,118 661,117.104569 661,116 L661,62.8284271 Z M674.807352,100.009551 C684.684818,99.0536667 692.918161,95.2536622 699.585786,88.5860371 C706.253412,81.9184119 710.053416,73.6850688 711.0093,63.8076022 C711.254064,61.2783775 715,61.4592101 715,64.0002506 L715,102.000251 C715,103.10482 714.104569,104.000251 713,104.000251 L675,104.000251 C672.458959,104.000251 672.278127,100.254314 674.807352,100.009551 Z"></path></g></g></svg>