<svg height='300px' width='300px'  fill="#000000" xmlns="http://www.w3.org/2000/svg" xmlns:xlink="http://www.w3.org/1999/xlink" version="1.1" x="0px" y="0px" viewBox="0 0 100 100" enable-background="new 0 0 100 100" xml:space="preserve"><path d="M79,74.5c-0.4,0-0.8,0-1.3-0.1c-0.2,0-0.3,0.1-0.5,0.1H21.7C13,74.5,6,67.4,6,58.8c0-8,6-14.6,13.7-15.6  C21.5,29.6,33.1,19.3,47,19.3c13.3,0,24.4,9.2,27,21.9c1.6-0.5,3.3-0.7,4.9-0.7c9.4,0,17,7.6,17,17C96,66.8,88.4,74.5,79,74.5z   M77.2,69.5c0.1,0,0.2,0,0.3,0c0.6,0.1,1.1,0.1,1.5,0.1c6.7,0,12.2-5.5,12.2-12.2c0-6.7-5.5-12.2-12.2-12.2c-2,0-4,0.5-5.7,1.4  c-0.7,0.4-1.6,0.4-2.3,0c-0.7-0.4-1.2-1.1-1.3-1.9C68.6,33,58.9,24.1,47,24.1c-12.1,0-22,9.4-22.7,21.5C24.3,47,23.2,48,21.9,48  c0,0-0.2,0-0.2,0c-5.9,0-10.8,4.9-10.8,10.8s4.9,10.8,10.8,10.8h54.7C76.6,69.5,76.9,69.5,77.2,69.5z"></path><path d="M41.4,63.7c-6.7,0-12.2-5.5-12.2-12.2s5.5-12.2,12.2-12.2s12.2,5.5,12.2,12.2S48.1,63.7,41.4,63.7z M41.4,44.1  c-4.1,0-7.4,3.3-7.4,7.4s3.3,7.4,7.4,7.4s7.4-3.3,7.4-7.4S45.5,44.1,41.4,44.1z"></path><path d="M57.2,61.3c0,1.3,1.4,2.3,3.2,2.3l0,0c1.8,0,3.2-1,3.2-2.3V41.6c0-1.3-1.4-2.3-3.2-2.3l0,0c-1.8,0-3.2,1-3.2,2.3V61.3z"></path></svg>